<?xml version="1.0" encoding="UTF-8" standalone="no"?><!DOCTYPE svg PUBLIC "-//W3C//DTD SVG 1.1//EN" "http://www.w3.org/Graphics/SVG/1.1/DTD/svg11.dtd"><svg width="100%" height="100%" viewBox="0 0 256 256" version="1.1" xmlns="http://www.w3.org/2000/svg" xmlns:xlink="http://www.w3.org/1999/xlink" xml:space="preserve" xmlns:serif="http://www.serif.com/" style="fill-rule:evenodd;clip-rule:evenodd;stroke-linecap:round;stroke-linejoin:round;stroke-miterlimit:1.5;"><g><path d="M247,224l-230,-116.844" style="fill:none;stroke:url(#_Linear1);stroke-width:8px;"/><path d="M17,224l230,-116.844" style="fill:none;stroke:url(#_Linear2);stroke-width:8px;"/><path d="M38.289,155.974l89.711,-135.974l89.711,136.144l-89.711,52.856l-89.711,-53.026Z" style="fill:url(#_Radial3);"/><path d="M38.289,155.974l89.711,-135.974l89.711,136.144l-89.711,52.856l-89.711,-53.026Z" style="fill:url(#_Radial4);"/><path d="M126.526,212.613l-94,-53c-0.727,-0.41 -1.25,-1.104 -1.444,-1.916c-0.194,-0.812 -0.041,-1.667 0.422,-2.362l94,-141c0.22,-0.33 0.502,-0.612 0.832,-0.832c1.008,-0.671 2.321,-0.671 3.328,0c0.33,0.22 0.612,0.502 0.832,0.832l94,141c0.463,0.694 0.616,1.55 0.422,2.362c-0.194,0.812 -0.717,1.506 -1.444,1.916l-94,53c-0.916,0.516 -2.031,0.516 -2.947,0Zm-1.526,-186.705l-86.711,130.066l86.711,48.89l0,-8.693l-72.234,-40.998c-0.604,-0.343 -1.038,-0.921 -1.198,-1.596c-0.16,-0.675 -0.033,-1.387 0.352,-1.965l73.08,-109.621l0,-16.084Zm6,178.956l86.711,-48.89l-86.711,-130.066l-0,16.084l73.08,109.62c0.385,0.578 0.513,1.289 0.352,1.965c-0.16,0.675 -0.595,1.254 -1.198,1.596l-72.234,40.998l-0,8.693Zm-6,-153.858l-67.43,101.145l67.43,38.271l0,-9.289l-56.941,-30.369c-0.507,-0.271 -0.874,-0.746 -1.005,-1.306c-0.132,-0.56 -0.017,-1.149 0.317,-1.618l57.63,-81.073l0,-15.761Zm6,139.416l67.43,-38.271l-67.43,-101.145l-0,15.761l57.63,81.073c0.333,0.469 0.448,1.058 0.317,1.618c-0.132,0.56 -0.498,1.035 -1.005,1.306l-56.941,30.369l-0,9.289Zm-6,-116.751l-53.053,74.633l53.052,28.295l0,-8.216l-39.693,-21.126c-0.372,-0.198 -0.644,-0.544 -0.749,-0.953c-0.104,-0.409 -0.032,-0.842 0.199,-1.195l40.242,-61.275l0,-10.163Zm6,102.928l53.052,-28.295l-53.052,-74.633l-0,10.163l40.242,61.275c0.232,0.353 0.304,0.786 0.199,1.195c-0.104,0.409 -0.376,0.754 -0.749,0.953l-39.693,21.126l-0,8.216Zm-6,-87.3l-36.832,56.082l36.832,19.603l0,-5.396l-26.738,-15.114c-0.364,-0.206 -0.625,-0.554 -0.722,-0.96c-0.096,-0.407 -0.018,-0.835 0.215,-1.182l27.245,-40.558l0,-12.475Zm6,75.685l36.832,-19.603l-36.832,-56.082l-0,12.475l27.245,40.558c0.233,0.347 0.311,0.775 0.215,1.182c-0.096,0.407 -0.358,0.755 -0.722,0.96l-26.738,15.114l-0,5.396Zm-6,-57.83l-23.851,35.506l23.851,13.482l0,-7.243l-14.522,-8.877c-0.239,-0.146 -0.405,-0.385 -0.46,-0.66c-0.054,-0.275 0.009,-0.559 0.175,-0.785l14.806,-20.18l0,-11.242Zm6,48.988l23.851,-13.482l-23.851,-35.506l-0,11.242l14.806,20.18c0.166,0.226 0.229,0.51 0.175,0.785c-0.054,0.275 -0.221,0.514 -0.46,0.66l-14.522,8.877l-0,7.243Zm-6,-34.364l-12.55,17.105l12.55,7.672l0,-24.777Zm6,24.777l12.55,-7.672l-12.55,-17.105l-0,24.777Z" style="fill:url(#_Linear5);"/></g><defs><linearGradient id="_Linear1" x1="0" y1="0" x2="1" y2="0" gradientUnits="userSpaceOnUse" gradientTransform="matrix(0,108.001855,-219.169067,0,132,111.245256)"><stop offset="0" style="stop-color:#ffef9a;stop-opacity:1"/><stop offset="1" style="stop-color:#c2a400;stop-opacity:1"/></linearGradient><linearGradient id="_Linear2" x1="0" y1="0" x2="1" y2="0" gradientUnits="userSpaceOnUse" gradientTransform="matrix(-0,108.001855,219.169067,0,132,111.245256)"><stop offset="0" style="stop-color:#ffef9a;stop-opacity:1"/><stop offset="1" style="stop-color:#c2a400;stop-opacity:1"/></linearGradient><radialGradient id="_Radial3" cx="0" cy="0" r="1" gradientUnits="userSpaceOnUse" gradientTransform="matrix(-0.999951,124.556539,-124.556539,-0.999951,127.999951,22)"><stop offset="0" style="stop-color:#15530e;stop-opacity:1"/><stop offset="1" style="stop-color:#3e5aa8;stop-opacity:1"/></radialGradient><radialGradient id="_Radial4" cx="0" cy="0" r="1" gradientUnits="userSpaceOnUse" gradientTransform="matrix(46.355416,43.787119,-43.787119,46.355416,147.454014,131.649777)"><stop offset="0" style="stop-color:#0e2053;stop-opacity:1"/><stop offset="1" style="stop-color:#3e5aa8;stop-opacity:0"/></radialGradient><linearGradient id="_Linear5" x1="0" y1="0" x2="1" y2="0" gradientUnits="userSpaceOnUse" gradientTransform="matrix(0,184.864464,-184.864464,0,127.999951,20.000075)"><stop offset="0" style="stop-color:#ffef9a;stop-opacity:1"/><stop offset="1" style="stop-color:#c2a400;stop-opacity:1"/></linearGradient></defs></svg>